<?xml version="1.0" encoding="UTF-8"?>
<!DOCTYPE svg PUBLIC "-//W3C//DTD SVG 1.1//EN" "http://www.w3.org/Graphics/SVG/1.1/DTD/svg11.dtd">
<svg xmlns="http://www.w3.org/2000/svg" xmlns:xlink="http://www.w3.org/1999/xlink" version="1.1" width="721px" height="721px" viewBox="-0.5 -0.5 721 721" style="background-color: rgb(255, 255, 255);"><defs/><rect fill="#ffffff" width="100%" height="100%" x="0" y="0"/><g><g><path d="M 30 716 L 93 716 L 93 462 L 30 462 L 30 716" fill="#c05046" stroke="rgb(0, 0, 0)" stroke-width="4" stroke-miterlimit="10" pointer-events="all"/></g><g><path d="M 4 4 L 4 716" fill="none" stroke="rgb(0, 0, 0)" stroke-width="8" stroke-miterlimit="10" pointer-events="stroke"/></g><g><path d="M 716 716 L 4 716" fill="none" stroke="rgb(0, 0, 0)" stroke-width="8" stroke-miterlimit="10" pointer-events="stroke"/></g><g><path d="M 233 715 L 296 715 L 296 309 L 233 309 L 233 715" fill="#c05046" stroke="rgb(0, 0, 0)" stroke-width="4" stroke-miterlimit="10" pointer-events="all"/></g><g><path d="M 131 715 L 194 715 L 194 385 L 131 385 L 131 715" fill="#c05046" stroke="rgb(0, 0, 0)" stroke-width="4" stroke-miterlimit="10" pointer-events="all"/></g><g><path d="M 335 715 L 398 715 L 398 538 L 335 538 L 335 715" fill="#c05046" stroke="rgb(0, 0, 0)" stroke-width="4" stroke-miterlimit="10" pointer-events="all"/></g><g><path d="M 436 716 L 499 716 L 499 462 L 436 462 L 436 716" fill="#c05046" stroke="rgb(0, 0, 0)" stroke-width="4" stroke-miterlimit="10" pointer-events="all"/></g><g><path d="M 538 715 L 601 715 L 601 157 L 538 157 L 538 715" fill="#c05046" stroke="rgb(0, 0, 0)" stroke-width="4" stroke-miterlimit="10" pointer-events="all"/></g><g><path d="M 639 715 L 702 715 L 702 309 L 639 309 L 639 715" fill="#c05046" stroke="rgb(0, 0, 0)" stroke-width="4" stroke-miterlimit="10" pointer-events="all"/></g></g></svg>